<?xml version="1.0" standalone="no"?>
<!DOCTYPE svg PUBLIC "-//W3C//DTD SVG 20010904//EN"
 "http://www.w3.org/TR/2001/REC-SVG-20010904/DTD/svg10.dtd">
<svg version="1.0" xmlns="http://www.w3.org/2000/svg"
 width="1300.000000pt" height="1300.000000pt" viewBox="0 0 1300.000000 1300.000000"
 preserveAspectRatio="xMidYMid meet">
<metadata>
Created by potrace 1.16, written by Peter Selinger 2001-2019
</metadata>
<g transform="translate(0.000000,1300.000000) scale(0.100000,-0.100000)"
fill="#000000" stroke="none">
<path d="M9565 12649 c-934 -114 -1698 -762 -1959 -1662 -112 -388 -116 -838
-10 -1237 197 -744 767 -1351 1500 -1596 407 -136 898 -153 1320 -44 803 207
1447 851 1654 1654 89 348 95 754 15 1110 -127 560 -479 1071 -960 1393 -317
212 -634 330 -1015 379 -124 15 -428 17 -545 3z m561 -599 c713 -122 1293
-708 1409 -1423 88 -545 -86 -1088 -478 -1486 -608 -617 -1554 -692 -2251
-177 -352 259 -599 659 -678 1094 -29 163 -29 419 0 583 114 636 575 1160
1192 1357 253 81 533 99 806 52z"/>
<path d="M10160 10765 l-615 -615 -325 325 c-179 179 -330 325 -335 325 -6 0
-102 -92 -215 -205 l-205 -205 538 -538 537 -537 825 825 825 825 -208 208
-207 207 -615 -615z"/>
<path d="M2716 9730 c-68 -26 -131 -91 -157 -160 -27 -71 -23 -185 8 -245 28
-53 88 -109 143 -134 45 -20 53 -21 2533 -21 1368 0 2487 2 2487 5 0 3 -18 28
-40 56 -22 28 -40 58 -40 66 0 8 -18 51 -41 96 -50 101 -91 201 -120 290 l-22
67 -2351 0 c-2297 -1 -2352 -1 -2400 -20z"/>
<path d="M5635 9087 c-92 -37 -151 -94 -181 -173 -18 -47 -19 -93 -19 -1079
l0 -1030 22 -41 c36 -67 70 -101 135 -133 150 -76 329 -11 400 144 l23 50 3
1024 3 1023 -24 52 c-52 113 -133 168 -257 173 -44 1 -87 -2 -105 -10z"/>
<path d="M2883 9071 c-90 -31 -155 -96 -182 -181 -6 -19 -81 -465 -167 -990
-166 -1016 -169 -1043 -129 -1125 59 -121 215 -191 345 -155 88 24 178 109
200 189 22 78 320 1935 320 1995 0 196 -197 333 -387 267z"/>
<path d="M4343 9076 c-90 -29 -160 -95 -188 -178 -8 -24 -85 -473 -171 -998
-166 -1016 -169 -1043 -129 -1125 59 -121 215 -191 345 -155 88 24 178 109
200 189 22 78 320 1935 320 1995 0 191 -192 329 -377 272z"/>
<path d="M6924 9069 c-116 -44 -187 -147 -186 -267 0 -102 307 -1962 333
-2023 29 -67 102 -131 174 -154 181 -57 363 62 382 248 4 39 -34 293 -146 982
-177 1090 -166 1027 -199 1089 -65 120 -225 176 -358 125z"/>
<path d="M8249 8477 c-14 -11 -3 -90 117 -827 73 -448 141 -835 150 -860 25
-67 105 -141 178 -164 185 -58 367 62 383 253 3 41 -21 209 -86 611 -50 305
-94 566 -97 580 -4 19 -20 32 -71 55 -37 16 -80 40 -95 53 -15 13 -60 39 -100
59 -40 19 -91 49 -113 67 -22 18 -61 44 -87 59 -26 15 -51 33 -55 40 -12 18
-92 87 -101 87 -4 0 -14 -6 -23 -13z"/>
<path d="M2136 6540 c-68 -26 -131 -91 -157 -160 -27 -71 -23 -185 8 -245 28
-53 88 -109 143 -134 42 -19 65 -21 373 -21 l327 0 0 -1160 0 -1160 -623 0
c-524 0 -632 -2 -682 -15 -201 -51 -369 -219 -420 -420 -23 -89 -23 -2231 0
-2320 52 -202 215 -367 415 -420 48 -13 610 -15 4209 -15 4593 0 4204 -6 4336
63 78 41 201 164 242 242 66 126 63 68 63 1291 0 1217 3 1152 -61 1284 -44 89
-161 206 -249 248 -129 62 -123 62 -807 62 l-623 0 0 1160 0 1160 328 0 c323
0 328 0 377 24 107 51 165 144 165 266 0 117 -54 209 -155 263 l-40 22 -3560
2 c-3496 2 -3561 2 -3609 -17z m5914 -1720 l0 -1160 -725 0 -725 0 0 435 0
435 -382 1 c-380 0 -382 1 -323 18 95 27 164 70 245 151 122 122 170 238 170
411 0 171 -50 290 -169 410 -117 117 -243 169 -411 169 -167 0 -293 -52 -411
-169 -117 -118 -169 -244 -169 -411 0 -168 52 -294 169 -411 79 -79 160 -127
257 -154 43 -12 5 -13 -333 -14 l-383 -1 0 -435 0 -435 -725 0 -725 0 0 1160
0 1160 2320 0 2320 0 0 -1160z m1740 -2755 l0 -1015 -4060 0 -4060 0 0 1015 0
1015 4060 0 4060 0 0 -1015z"/>
</g>
</svg>
